<?xml version="1.0" encoding="UTF-8" standalone="no" ?>
<!DOCTYPE svg PUBLIC "-//W3C//DTD SVG 1.1//EN" "http://www.w3.org/Graphics/SVG/1.1/DTD/svg11.dtd">
<svg xmlns="http://www.w3.org/2000/svg" xmlns:xlink="http://www.w3.org/1999/xlink" version="1.1" width="1080" height="1080" viewBox="0 0 1080 1080" xml:space="preserve">
<desc>Created with Fabric.js 5.2.4</desc>
<defs>
</defs>
<g transform="matrix(1 0 0 1 540 540)" id="25f69a74-0688-4b08-8987-478e43a03ef4"  >
<rect style="stroke: none; stroke-width: 1; stroke-dasharray: none; stroke-linecap: butt; stroke-dashoffset: 0; stroke-linejoin: miter; stroke-miterlimit: 4; fill: rgb(255,255,255); fill-rule: nonzero; opacity: 1; visibility: hidden;" vector-effect="non-scaling-stroke"  x="-540" y="-540" rx="0" ry="0" width="1080" height="1080" />
</g>
<g transform="matrix(1 0 0 1 540 540)" id="bb7a2e51-a076-46d6-97a6-e0b3621fe5ae"  >
</g>
<g transform="matrix(13.46 0 0 13.46 520.86 540)"  >
<g style="" vector-effect="non-scaling-stroke"   >
		<g transform="matrix(1 0 0 1 17.78 -0.77)"  >
<polygon style="stroke: rgb(255,255,255); stroke-width: 0.5; stroke-dasharray: none; stroke-linecap: butt; stroke-dashoffset: 0; stroke-linejoin: miter; stroke-miterlimit: 10; fill: rgb(255,255,255); fill-rule: nonzero; opacity: 1;" vector-effect="non-scaling-stroke"  points="7.22,31.08 15.78,37.91 -10.78,-37.91 -15.78,-37.91 " />
</g>
		<g transform="matrix(1 0 0 1 14.75 29.22)"  >
<polygon style="stroke: rgb(255,255,255); stroke-width: 0.25; stroke-dasharray: none; stroke-linecap: butt; stroke-dashoffset: 0; stroke-linejoin: miter; stroke-miterlimit: 10; fill: rgb(255,255,255); fill-rule: nonzero; opacity: 1;" vector-effect="non-scaling-stroke"  points="4.75,1.59 0.58,8.41 -4.75,-8.41 1.55,-8.41 " />
</g>
		<g transform="matrix(1 0 0 1 -31.5 -13.19)"  >
<path style="stroke: rgb(247,232,232); stroke-width: 0.25; stroke-dasharray: none; stroke-linecap: butt; stroke-dashoffset: 0; stroke-linejoin: miter; stroke-miterlimit: 10; fill: rgb(255,255,255); fill-rule: nonzero; opacity: 1;" vector-effect="non-scaling-stroke"  transform=" translate(-48.7, -66.49)" d="M 48.7 66.49" stroke-linecap="round" />
</g>
		<g transform="matrix(1 0 0 1 -9.5 -30.19)"  >
<path style="stroke: rgb(247,232,232); stroke-width: 0.25; stroke-dasharray: none; stroke-linecap: butt; stroke-dashoffset: 0; stroke-linejoin: miter; stroke-miterlimit: 10; fill: rgb(255,255,255); fill-rule: nonzero; opacity: 1;" vector-effect="non-scaling-stroke"  transform=" translate(-70.7, -49.49)" d="M 70.7 49.49" stroke-linecap="round" />
</g>
		<g transform="matrix(1 0 0 1 11.5 36.81)"  >
<path style="stroke: rgb(247,232,232); stroke-width: 0.25; stroke-dasharray: none; stroke-linecap: butt; stroke-dashoffset: 0; stroke-linejoin: miter; stroke-miterlimit: 10; fill: rgb(255,255,255); fill-rule: nonzero; opacity: 1;" vector-effect="non-scaling-stroke"  transform=" translate(-91.7, -116.49)" d="M 91.7 116.49" stroke-linecap="round" />
</g>
		<g transform="matrix(1 0 0 1 11.23 14.31)"  >
<polygon style="stroke: rgb(255,255,255); stroke-width: 0.25; stroke-dasharray: none; stroke-linecap: butt; stroke-dashoffset: 0; stroke-linejoin: miter; stroke-miterlimit: 10; fill: rgb(255,255,255); fill-rule: nonzero; opacity: 1;" vector-effect="non-scaling-stroke"  points="1.97,-3.5 -4.27,-3.5 -2.17,3.5 4.27,3.5 " />
</g>
		<g transform="matrix(1 0 0 1 2.75 -16.69)"  >
<polygon style="stroke: rgb(255,255,255); stroke-width: 0.25; stroke-dasharray: none; stroke-linecap: butt; stroke-dashoffset: 0; stroke-linejoin: miter; stroke-miterlimit: 10; fill: rgb(255,255,255); fill-rule: nonzero; opacity: 1;" vector-effect="non-scaling-stroke"  points="8.25,19.5 2.26,19.49 -8.25,-10.5 -4.25,-19.5 " />
</g>
		<g transform="matrix(1 0 0 1 17.5 38.81)"  >
<path style="stroke: rgb(247,232,232); stroke-width: 0.25; stroke-dasharray: none; stroke-linecap: butt; stroke-dashoffset: 0; stroke-linejoin: miter; stroke-miterlimit: 10; fill: rgb(255,255,255); fill-rule: nonzero; opacity: 1;" vector-effect="non-scaling-stroke"  transform=" translate(-97.7, -118.49)" d="M 97.7 118.49" stroke-linecap="round" />
</g>
		<g transform="matrix(1 0 0 1 -1.5 -21.19)"  >
<path style="stroke: rgb(247,232,232); stroke-width: 0.25; stroke-dasharray: none; stroke-linecap: butt; stroke-dashoffset: 0; stroke-linejoin: miter; stroke-miterlimit: 10; fill: rgb(255,255,255); fill-rule: nonzero; opacity: 1;" vector-effect="non-scaling-stroke"  transform=" translate(-78.7, -58.49)" d="M 78.7 58.49" stroke-linecap="round" />
</g>
		<g transform="matrix(1 0 0 1 24.67 34.31)"  >
<polygon style="stroke: rgb(255,255,255); stroke-width: 0.25; stroke-dasharray: none; stroke-linecap: butt; stroke-dashoffset: 0; stroke-linejoin: miter; stroke-miterlimit: 10; fill: rgb(255,255,255); fill-rule: nonzero; opacity: 1;" vector-effect="non-scaling-stroke"  points="-9.17,3.5 9.17,3.5 0.47,-3.5 -5.44,-3.5 " />
</g>
		<g transform="matrix(1 0 0 1 -19.5 36.81)"  >
<path style="stroke: rgb(247,232,232); stroke-width: 0.25; stroke-dasharray: none; stroke-linecap: butt; stroke-dashoffset: 0; stroke-linejoin: miter; stroke-miterlimit: 10; fill: rgb(255,255,255); fill-rule: nonzero; opacity: 1;" vector-effect="non-scaling-stroke"  transform=" translate(-60.7, -116.49)" d="M 60.7 116.49" stroke-linecap="round" />
</g>
		<g transform="matrix(1 0 0 1 1.5 -31.19)"  >
<path style="stroke: rgb(247,232,232); stroke-width: 0.25; stroke-dasharray: none; stroke-linecap: butt; stroke-dashoffset: 0; stroke-linejoin: miter; stroke-miterlimit: 10; fill: rgb(255,255,255); fill-rule: nonzero; opacity: 1;" vector-effect="non-scaling-stroke"  transform=" translate(-81.7, -48.49)" d="M 81.7 48.49" stroke-linecap="round" />
</g>
		<g transform="matrix(1 0 0 1 -17.5 4.81)"  >
<polygon style="stroke: rgb(255,253,253); stroke-width: 0.25; stroke-dasharray: none; stroke-linecap: butt; stroke-dashoffset: 0; stroke-linejoin: miter; stroke-miterlimit: 10; fill: rgb(255,255,255); fill-rule: nonzero; opacity: 1;" vector-effect="non-scaling-stroke"  points="-15,32 -8,32 15,-23 12,-32 " />
</g>
		<g transform="matrix(1 0 0 1 -34.5 37.81)"  >
<path style="stroke: rgb(247,232,232); stroke-width: 0.25; stroke-dasharray: none; stroke-linecap: butt; stroke-dashoffset: 0; stroke-linejoin: miter; stroke-miterlimit: 10; fill: rgb(255,255,255); fill-rule: nonzero; opacity: 1;" vector-effect="non-scaling-stroke"  transform=" translate(-45.7, -117.49)" d="M 45.7 117.49" stroke-linecap="round" />
</g>
		<g transform="matrix(1 0 0 1 0.5 -31.19)"  >
<path style="stroke: rgb(247,232,232); stroke-width: 0.25; stroke-dasharray: none; stroke-linecap: butt; stroke-dashoffset: 0; stroke-linejoin: miter; stroke-miterlimit: 10; fill: rgb(255,255,255); fill-rule: nonzero; opacity: 1;" vector-effect="non-scaling-stroke"  transform=" translate(-80.7, -48.49)" d="M 80.7 48.49" stroke-linecap="round" />
</g>
		<g transform="matrix(1 0 0 1 -4.95 2.31)"  >
<polygon style="stroke: rgb(255,255,255); stroke-width: 0.25; stroke-dasharray: none; stroke-linecap: butt; stroke-dashoffset: 0; stroke-linejoin: miter; stroke-miterlimit: 10; fill: rgb(255,255,255); fill-rule: nonzero; opacity: 1;" vector-effect="non-scaling-stroke"  points="-7.45,15.5 -2.55,15.5 7.45,-7.5 5.45,-15.5 " />
</g>
		<g transform="matrix(1 0 0 1 1 15.81)"  >
<polygon style="stroke: rgb(255,255,255); stroke-width: 0.25; stroke-dasharray: none; stroke-linecap: butt; stroke-dashoffset: 0; stroke-linejoin: miter; stroke-miterlimit: 10; fill: rgb(255,255,255); fill-rule: nonzero; opacity: 1;" vector-effect="non-scaling-stroke"  points="8.5,2 -8.5,2 -7.5,-2 7.5,-2 " />
</g>
		<g transform="matrix(1 0 0 1 -14 28.81)"  >
<polygon style="stroke: rgb(255,255,255); stroke-width: 0.25; stroke-dasharray: none; stroke-linecap: butt; stroke-dashoffset: 0; stroke-linejoin: miter; stroke-miterlimit: 10; fill: rgb(255,255,255); fill-rule: nonzero; opacity: 1;" vector-effect="non-scaling-stroke"  points="-0.5,8 -6.5,8 0.5,-8 6.5,-8 " />
</g>
		<g transform="matrix(1 0 0 1 -21.5 33.81)"  >
<polygon style="stroke: rgb(255,255,255); stroke-width: 0.25; stroke-dasharray: none; stroke-linecap: butt; stroke-dashoffset: 0; stroke-linejoin: miter; stroke-miterlimit: 10; fill: rgb(255,255,255); fill-rule: nonzero; opacity: 1;" vector-effect="non-scaling-stroke"  points="1,3 -4,3 -2,-3 4,-3 " />
</g>
		<g transform="matrix(1 0 0 1 -34.5 37.81)"  >
<path style="stroke: rgb(247,232,232); stroke-width: 0.25; stroke-dasharray: none; stroke-linecap: butt; stroke-dashoffset: 0; stroke-linejoin: miter; stroke-miterlimit: 10; fill: rgb(255,255,255); fill-rule: nonzero; opacity: 1;" vector-effect="non-scaling-stroke"  transform=" translate(-45.7, -117.49)" d="M 45.7 117.49" stroke-linecap="round" />
</g>
		<g transform="matrix(1 0 0 1 34.5 37.81)"  >
<path style="stroke: rgb(247,232,232); stroke-width: 0.25; stroke-dasharray: none; stroke-linecap: butt; stroke-dashoffset: 0; stroke-linejoin: miter; stroke-miterlimit: 10; fill: rgb(255,255,255); fill-rule: nonzero; opacity: 1;" vector-effect="non-scaling-stroke"  transform=" translate(-114.7, -117.49)" d="M 114.7 117.49" stroke-linecap="round" />
</g>
		<g transform="matrix(1 0 0 1 -23.8 37.31)"  >
<polygon style="stroke: rgb(255,255,255); stroke-width: 0.25; stroke-dasharray: none; stroke-linecap: butt; stroke-dashoffset: 0; stroke-linejoin: miter; stroke-miterlimit: 10; fill: rgb(255,255,255); fill-rule: nonzero; opacity: 1;" vector-effect="non-scaling-stroke"  points="8.8,0.5 -9.3,0.5 -8.7,-0.5 9.3,-0.5 " />
</g>
		<g transform="matrix(1 0 0 1 22 31.11)"  >
<rect style="stroke: rgb(255,255,255); stroke-width: 0.25; stroke-dasharray: none; stroke-linecap: butt; stroke-dashoffset: 0; stroke-linejoin: miter; stroke-miterlimit: 10; fill: rgb(255,255,255); fill-rule: nonzero; opacity: 1;" vector-effect="non-scaling-stroke"  x="-3.5" y="-0.5" rx="0" ry="0" width="7" height="1" />
</g>
</g>
</g>
</svg>